<svg width="169" height="127" viewBox="0 0 169 127" fill="none" xmlns="http://www.w3.org/2000/svg">
<path d="M124.681 77.4841L101.515 54.3151C106.171 48.7152 108.974 41.5228 108.974 33.6728C108.974 15.8271 94.5099 1.36243 76.6641 1.36243C58.8217 1.36226 44.3538 15.827 44.3538 33.6726C44.3538 51.515 58.8217 65.983 76.6641 65.983C84.5159 65.983 91.7066 63.1798 97.3065 58.5232L120.473 81.6922L124.681 77.4841ZM47.7548 33.6726C47.7548 17.7317 60.7215 4.76332 76.6641 4.76332C92.6035 4.76332 105.573 17.7317 105.573 33.6726C105.573 49.6135 92.6035 62.5819 76.6641 62.5819C60.7215 62.5819 47.7548 49.6136 47.7548 33.6726Z" fill="url(#paint0_linear_5_194)"/>
<path d="M70.1581 48.2131H84.1949" stroke="url(#paint1_linear_5_194)" stroke-width="2" stroke-linecap="round" stroke-linejoin="round"/>
<path d="M72.4975 55.2316H81.8554" stroke="url(#paint2_linear_5_194)" stroke-width="2" stroke-linecap="round" stroke-linejoin="round"/>
<path d="M70.16 41.1949C70.1604 36.5159 68.9907 35.3462 66.6508 33.0068C64.311 30.6673 63.1964 28.2972 63.1416 24.8186C63.0294 17.684 67.8202 13.1213 77.1783 13.1213C86.5367 13.1213 91.3274 17.684 91.2151 24.8186C91.1604 28.2972 90.0451 30.6673 87.7059 33.0068C85.3669 35.3462 84.1972 36.5159 84.1967 41.1949" stroke="url(#paint3_linear_5_194)" stroke-width="3" stroke-linecap="round" stroke-linejoin="round"/>
<path d="M5.2 89V115.64H18.92V117H3.68V89H5.2ZM39.3163 117H37.9563L37.8763 112.64C37.3963 114.107 36.5696 115.253 35.3963 116.08C34.2229 116.88 32.7029 117.28 30.8363 117.28C29.3696 117.28 28.0496 116.973 26.8763 116.36C25.7296 115.747 24.8229 114.8 24.1563 113.52C23.4896 112.213 23.1563 110.547 23.1563 108.52V97H24.5963V108.48C24.5963 110.96 25.1429 112.827 26.2363 114.08C27.3563 115.307 28.9429 115.92 30.9963 115.92C33.1029 115.92 34.7696 115.24 35.9963 113.88C37.2229 112.52 37.8363 110.413 37.8363 107.56V97H39.3163V117ZM45.8981 97H47.3381L47.3781 101.52C47.8315 100.107 48.5915 98.96 49.6581 98.08C50.7515 97.2 52.2315 96.76 54.0981 96.76C55.7248 96.76 57.1515 97.2 58.3781 98.08C59.6315 98.96 60.5115 100.307 61.0181 102.12C61.5248 100.227 62.4315 98.8667 63.7381 98.04C65.0448 97.1867 66.5648 96.76 68.2981 96.76C69.7115 96.76 70.9781 97.08 72.0981 97.72C73.2448 98.36 74.1515 99.3333 74.8181 100.64C75.4848 101.947 75.8181 103.627 75.8181 105.68V117H74.3381V105.76C74.3381 103.28 73.7915 101.387 72.6981 100.08C71.6048 98.7467 70.0848 98.08 68.1381 98.08C66.1381 98.08 64.5248 98.8133 63.2981 100.28C62.0981 101.747 61.4981 103.933 61.4981 106.84V117H60.0181V105.76C60.0181 103.28 59.4848 101.387 58.4181 100.08C57.3781 98.7467 55.8848 98.08 53.9381 98.08C51.9115 98.08 50.3115 98.8133 49.1381 100.28C47.9648 101.747 47.3781 103.933 47.3781 106.84V117H45.8981V97ZM82.6291 97H84.0691V117H82.6291V97ZM83.3491 92C83.0024 92 82.7091 91.8933 82.4691 91.68C82.2291 91.44 82.1091 91.1333 82.1091 90.76C82.1091 90.3867 82.2291 90.0933 82.4691 89.88C82.7091 89.64 83.0024 89.52 83.3491 89.52C83.6957 89.52 83.9891 89.64 84.2291 89.88C84.4691 90.0933 84.5891 90.3867 84.5891 90.76C84.5891 91.1333 84.4691 91.44 84.2291 91.68C83.9891 91.8933 83.6957 92 83.3491 92ZM91.1716 97H92.6116L92.6516 101.52C93.1316 100.053 93.9449 98.8933 95.0916 98.04C96.2649 97.16 97.7982 96.72 99.6916 96.72C101.158 96.72 102.465 97.04 103.612 97.68C104.785 98.32 105.705 99.3067 106.372 100.64C107.065 101.947 107.412 103.613 107.412 105.64V117H105.932V105.72C105.932 103.24 105.358 101.347 104.212 100.04C103.092 98.7067 101.518 98.04 99.4916 98.04C97.4116 98.04 95.7449 98.76 94.4916 100.2C93.2649 101.64 92.6516 103.787 92.6516 106.64V117H91.1716V97ZM121.993 117.28C120.126 117.28 118.459 116.867 116.993 116.04C115.553 115.213 114.406 114.04 113.553 112.52C112.726 110.973 112.313 109.133 112.313 107C112.313 104.893 112.726 103.067 113.553 101.52C114.406 99.9733 115.566 98.7867 117.033 97.96C118.499 97.1333 120.153 96.72 121.993 96.72C123.859 96.72 125.513 97.1333 126.953 97.96C128.393 98.7867 129.526 99.9733 130.353 101.52C131.206 103.067 131.633 104.893 131.633 107C131.633 109.133 131.206 110.973 130.353 112.52C129.526 114.04 128.379 115.213 126.913 116.04C125.473 116.867 123.833 117.28 121.993 117.28ZM121.953 115.92C123.366 115.92 124.686 115.6 125.913 114.96C127.166 114.32 128.179 113.347 128.953 112.04C129.726 110.707 130.113 109.027 130.113 107C130.113 104.947 129.726 103.267 128.953 101.96C128.179 100.653 127.166 99.68 125.913 99.04C124.686 98.4 123.379 98.08 121.993 98.08C120.579 98.08 119.259 98.4 118.033 99.04C116.806 99.68 115.806 100.667 115.033 102C114.259 103.307 113.873 104.973 113.873 107C113.873 109.053 114.246 110.733 114.993 112.04C115.766 113.347 116.766 114.32 117.993 114.96C119.246 115.6 120.566 115.92 121.953 115.92ZM136.992 97H138.432L138.472 101.28C138.845 100.347 139.419 99.52 140.192 98.8C140.965 98.0533 141.885 97.5067 142.952 97.16C144.045 96.8133 145.245 96.76 146.552 97V98.44C145.405 98.2 144.339 98.2267 143.352 98.52C142.365 98.7867 141.512 99.2667 140.792 99.96C140.072 100.653 139.499 101.533 139.072 102.6C138.672 103.64 138.472 104.787 138.472 106.04V117H136.992V97ZM164.217 117L164.177 112C163.644 113.707 162.724 115.013 161.417 115.92C160.137 116.827 158.497 117.28 156.497 117.28C155.057 117.28 153.831 117.067 152.817 116.64C151.804 116.213 151.017 115.6 150.457 114.8C149.924 113.973 149.657 112.987 149.657 111.84C149.657 110.16 150.284 108.813 151.537 107.8C152.817 106.787 154.751 106.147 157.337 105.88L164.177 105.12V103.32C164.177 101.64 163.657 100.347 162.617 99.44C161.604 98.5333 160.177 98.08 158.337 98.08C156.551 98.08 155.084 98.4933 153.937 99.32C152.817 100.12 152.071 101.28 151.697 102.8L150.377 102.32C150.857 100.507 151.764 99.12 153.097 98.16C154.457 97.2 156.191 96.72 158.297 96.72C160.617 96.72 162.417 97.2933 163.697 98.44C164.977 99.56 165.617 101.133 165.617 103.16V117H164.217ZM164.177 106.44L157.297 107.2C155.164 107.413 153.617 107.907 152.657 108.68C151.697 109.427 151.217 110.453 151.217 111.76C151.217 113.093 151.671 114.133 152.577 114.88C153.511 115.627 154.817 116 156.497 116C158.124 116 159.511 115.667 160.657 115C161.804 114.307 162.671 113.36 163.257 112.16C163.871 110.933 164.177 109.493 164.177 107.84V106.44Z" fill="black"/>
<defs>
<linearGradient id="paint0_linear_5_194" x1="84.5176" y1="1.36243" x2="84.5176" y2="81.6922" gradientUnits="userSpaceOnUse">
<stop stop-color="#26941C"/>
<stop offset="1" stop-color="#5284BD"/>
</linearGradient>
<linearGradient id="paint1_linear_5_194" x1="77.1765" y1="48.2131" x2="77.1765" y2="49.2131" gradientUnits="userSpaceOnUse">
<stop stop-color="#26941C"/>
<stop offset="1" stop-color="#5284BD"/>
</linearGradient>
<linearGradient id="paint2_linear_5_194" x1="77.1765" y1="55.2316" x2="77.1765" y2="56.2316" gradientUnits="userSpaceOnUse">
<stop stop-color="#26941C"/>
<stop offset="1" stop-color="#5284BD"/>
</linearGradient>
<linearGradient id="paint3_linear_5_194" x1="77.1784" y1="13.1213" x2="77.1784" y2="41.1949" gradientUnits="userSpaceOnUse">
<stop stop-color="#26941C"/>
<stop offset="1" stop-color="#5284BD"/>
</linearGradient>
</defs>
</svg>
